<?xml version="1.0" encoding="UTF-8" standalone="no"?>
<!-- Created with Inkscape (http://www.inkscape.org/) -->

<svg
   version="1.1"
   id="svg1"
   width="3136"
   height="1344"
   viewBox="0 0 3136 1344"
   xml:space="preserve"
   xmlns="http://www.w3.org/2000/svg"
   xmlns:svg="http://www.w3.org/2000/svg"><defs
     id="defs1" /><g
     id="g1"><path
       style="display:inline;fill:#4896bb;fill-opacity:1;stroke-width:1.29963"
       d="m 691.33913,1175.8331 c -2.39015,-1.6107 -5.39323,-4.7221 -6.67352,-6.9143 -2.21869,-3.7989 -7.60584,-37.4237 -11.43667,-71.3838 -0.80633,-7.1479 -4.92687,-39.8985 -9.15679,-72.7791 -12.02167,-93.44845 -42.35506,-336.02788 -46.07216,-368.44425 -1.84419,-16.08289 -3.90679,-32.75061 -4.58355,-37.03937 -0.67677,-4.28877 -3.30408,-24.7579 -5.83846,-45.48695 -2.53439,-20.72905 -6.62952,-52.89482 -9.1003,-71.47949 -2.47078,-18.58466 -7.45289,-58.35325 -11.07138,-88.37463 -7.81339,-64.8253 -11.3274,-89.85195 -13.07456,-93.11655 -2.07547,-3.87805 -5.94869,-2.95396 -7.61881,1.81775 -0.8131,2.32308 -3.22621,15.3356 -5.36247,28.9167 -7.48615,47.59267 -47.19304,322.27691 -70.66479,488.84468 -9.10313,64.60069 -10.14332,70.53417 -13.30268,75.88255 -4.80831,8.13982 -16.83954,10.32092 -25.28297,4.58346 -8.12285,-5.51961 -7.59112,-3.74993 -27.74705,-92.34757 -4.55323,-20.01426 -14.41595,-63.58426 -21.91713,-96.82222 -7.50119,-33.23796 -14.55735,-64.23406 -15.68034,-68.88023 -1.12301,-4.64617 -6.15069,-26.42477 -11.17264,-48.39689 -5.02195,-21.97212 -9.8068,-41.43294 -10.633,-43.24626 -4.73408,-10.39018 -8.90385,2.12071 -34.7274,104.19538 -12.81056,50.63726 -24.24063,94.68991 -25.40013,97.89479 -3.06413,8.46926 -5.31216,11.36106 -11.1452,14.33685 -5.09819,2.60091 -6.8337,2.64537 -89.43242,2.29107 l -84.23334,-0.36131 -4.7729,-3.64115 c -10.95127,-8.35451 -11.56631,-20.12911 -1.54088,-29.49933 3.32911,-3.11155 4.39333,-3.28503 25.1413,-4.09859 11.91578,-0.46724 46.01018,-0.90586 75.76534,-0.97472 41.60479,-0.0963 54.39751,-0.50042 55.3871,-1.74974 2.40056,-3.03062 5.4292,-14.49579 38.70814,-146.53294 18.2861,-72.55168 34.40937,-135.86017 35.8295,-140.68552 2.72078,-9.24476 5.41546,-12.70625 12.86846,-16.53036 4.46535,-2.29115 4.67464,-2.27812 11.42211,0.71166 5.74533,2.54572 7.28954,3.98629 9.40882,8.77726 2.30508,5.21104 24.38156,100.83666 56.5957,245.1478 13.95996,62.53706 15.83992,70.22869 17.72147,72.50539 2.25939,2.73391 7.46322,1.95481 8.68062,-1.29963 0.60163,-1.60829 3.83761,-22.80845 7.19107,-47.11148 9.42047,-68.27139 23.86806,-169.32354 27.44395,-191.95374 1.77318,-11.22164 6.4157,-43.09499 10.31672,-70.82967 3.90102,-27.73469 11.51833,-79.96072 16.92737,-116.05786 5.40903,-36.09714 12.99812,-87.56237 16.86465,-114.36718 11.03159,-76.47689 16.23573,-109.31687 18.37508,-115.95335 3.67571,-11.40236 13.09545,-15.714631 22.20028,-10.16309 8.05018,4.90848 7.6645,3.09332 17.9602,84.52837 16.07865,127.17599 25.6693,203.77467 29.20853,233.28306 2.05757,17.15507 4.96122,40.84077 6.45255,52.63489 1.49132,11.79411 7.11089,56.24136 12.48793,98.77165 5.37704,42.5303 11.49367,91.6562 13.5925,109.16867 5.43851,45.37843 9.47086,77.83914 15.57927,125.41401 4.79281,37.32858 14.33954,111.91268 20.12853,157.25487 1.18639,9.29233 2.85883,18.35723 3.71653,20.14422 2.03111,4.23174 7.88417,5.11302 9.82858,1.47986 0.7579,-1.41614 3.74825,-16.2182 6.64522,-32.89347 2.89697,-16.67527 7.56049,-42.89257 10.36335,-58.26066 2.80287,-15.36809 7.48519,-42.27036 10.40517,-59.78284 2.91996,-17.51247 6.69057,-39.15126 8.37911,-48.0862 1.68855,-8.93493 3.43581,-18.42124 3.88279,-21.08068 1.00146,-5.95846 5.92535,-12.00274 12.51761,-15.36586 4.77474,-2.43589 8.10555,-2.54227 79.60113,-2.54227 41.03983,0 76.44547,-0.36552 78.67921,-0.81227 5.41715,-1.08343 5.31873,-2.44818 -1.8707,-25.94071 -20.90949,-68.32483 -27.84294,-134.08292 -22.04575,-209.08572 1.83762,-23.7747 5.16049,-49.78882 6.5353,-51.16364 0.30952,-0.30951 7.4538,-1.3464 15.87622,-2.3042 32.64625,-3.71258 56.4588,-8.44187 78.77803,-15.64573 35.66972,-11.51293 67.58132,-28.30621 99.63862,-52.43431 5.361,-4.03495 10.4779,-7.76925 11.3709,-8.29844 1.0063,-0.59628 7.1839,3.20444 16.2453,9.9947 37.3443,27.98429 69.0385,44.4997 108.8446,56.71743 25.5537,7.84322 59.1105,14.35457 73.9774,14.35457 3.7993,0 7.164,0.75019 8.2541,1.84028 2.5337,2.53364 4.0671,28.85133 1.8575,31.87946 -0.8595,1.17784 -20.0218,25.21505 -42.5829,53.41603 -22.5611,28.20098 -68.9359,86.25801 -103.0551,129.01564 -34.1192,42.75762 -62.4956,77.55514 -63.0588,77.32781 -0.5631,-0.22733 -9.9158,-9.98226 -20.7837,-21.67761 -10.8679,-11.69537 -33.0425,-35.28096 -49.277,-52.41244 -16.2344,-17.13149 -29.903,-31.83313 -30.3746,-32.67032 -1.0113,-1.79511 25.113,-31.41342 27.7076,-31.41342 0.9579,0 7.8642,6.43316 15.3473,14.2959 32.3467,33.98798 50.6591,52.5077 53.337,53.94086 2.6067,1.39509 3.5505,0.83479 10.2028,-6.05757 6.1277,-6.34886 122.8621,-151.96412 138.2678,-172.47622 7.4213,-9.88122 6.8297,-11.84655 -4.5487,-15.11041 -31.0452,-8.90519 -42.2415,-12.55337 -56.2051,-18.31375 -17.1011,-7.05467 -42.5902,-20.61364 -65.5691,-34.87967 -8.1461,-5.05739 -15.9007,-9.19524 -17.2323,-9.19524 -1.3317,0 -7.8373,3.44671 -14.457,7.65936 -27.9131,17.76356 -61.5269,34.0127 -85.9928,41.56956 -12.39516,3.82852 -50.70329,11.97223 -65.40719,13.90453 -5.65355,0.74296 -7.1388,1.47501 -8.09492,3.9898 -0.64405,1.69395 -1.87739,15.02573 -2.74077,29.62619 -2.43448,41.16877 0.80661,93.27039 8.12954,130.68529 3.68718,18.83891 12.32267,52.62885 17.4372,68.23041 4.33635,13.22775 15.42768,38.40666 22.61321,51.33527 2.185,3.93137 3.98332,7.58657 3.99626,8.12267 0.013,0.5361 -39.59883,1.04018 -88.02618,1.12019 -48.42735,0.08 -93.60564,0.51863 -100.39619,0.97472 l -12.34645,0.82925 -1.52994,9.09739 c -3.06063,18.19934 -13.46912,78.03267 -23.73846,136.46084 -18.48704,105.18333 -23.28489,132.87093 -31.25572,180.37223 -4.99407,29.7617 -8.69283,48.2518 -10.27112,51.3455 -2.9314,5.746 -10.92725,10.6627 -17.34037,10.6627 -2.52121,0 -6.41782,-1.2894 -8.85017,-2.9286 z"
       id="path2" /><path
       style="display:inline;fill:#23436a;fill-opacity:1;stroke-width:1.83795"
       d="M 1084.1486,940.82494 C 1041.4005,918.56439 994.91514,877.67081 968.95004,839.48373 l -13.43433,-19.75796 30.89485,0.13533 30.89484,0.13531 8.032,9.51393 c 18.0855,21.42213 50.0051,47.69015 73.7604,60.70054 l 11.9503,6.54496 20.2138,-13.50889 c 87.6168,-58.55425 134.1632,-143.4005 144.1571,-262.7741 1.2395,-14.80458 2.557,-21.14666 5.034,-24.23234 12.4844,-15.55193 43.8826,-53.61261 46.1009,-55.88316 4.2001,-4.29912 1.9425,80.86231 -3.0045,113.33604 -7.4918,49.17872 -20.5114,92.80598 -38.8531,130.19235 -33.5346,68.35467 -88.6827,125.42325 -153.4683,158.81263 -9.9885,5.14789 -19.8574,9.33715 -21.9309,9.30947 -2.0736,-0.0277 -13.3904,-5.06001 -25.1485,-11.1829 z"
       id="path3" /><path
       style="display:inline;fill:#23436a;fill-opacity:1;stroke-width:1.83795"
       d="m 1496.2099,793.53498 c -9.2429,-23.47057 -24.3001,-62.47827 -53.3871,-138.30575 -19.0005,-49.53276 -36.2886,-94.4238 -38.4181,-99.75789 l -3.8717,-9.69833 26.8276,0.50858 26.8277,0.50858 30.8107,83.62673 c 36.0799,97.92814 35.8718,97.41136 39.2198,97.41136 2.503,0 12.4418,-24.91715 55.5328,-139.22472 l 16.1091,-42.73234 h 24.5523 c 13.5038,0 24.5524,0.48101 24.5524,1.06891 0,0.5879 -11.8802,31.39654 -26.4005,68.46364 -14.5202,37.0671 -36.1596,92.73351 -48.0876,123.70313 l -21.6871,56.30838 -8.2264,1.12756 c -4.5245,0.62015 -15.9887,1.12755 -25.4759,1.12755 -16.1805,0 -17.3504,-0.25627 -18.878,-4.13539 z"
       id="path4" /><path
       style="display:inline;fill:#23436a;fill-opacity:1;stroke-width:1.83795"
       d="m 1670.6967,702.09696 v -95.57341 h 22.7777 c 16.647,0 22.9544,0.61837 23.4339,2.29744 0.3609,1.26359 0.407,44.27162 0.1025,95.57341 l -0.5536,93.27597 h -22.8803 -22.8802 z"
       id="path5" /><path
       style="display:inline;fill:#23436a;fill-opacity:1;stroke-width:1.83795"
       d="m 1687.9085,575.29276 c -12.9614,-2.92812 -22.7257,-14.92912 -22.7257,-27.93142 0,-9.23852 7.1535,-21.7697 14.675,-25.70699 13.6525,-7.14673 33.611,-1.8123 39.478,10.55153 4.1434,8.73146 3.6479,23.84421 -1.0298,31.41295 -5.9506,9.62819 -18.359,14.39355 -30.3975,11.67393 z"
       id="path6" /><path
       style="display:inline;fill:#23436a;fill-opacity:1;stroke-width:1.83795"
       d="m 1812.6986,795.66875 c -8.7638,-2.77667 -13.7846,-5.89594 -21.299,-13.23236 -15.3695,-15.00539 -16.3584,-19.56257 -17.6333,-81.2584 l -1.0634,-51.46261 -13.3251,-0.54001 -13.3252,-0.54 v -19.21796 -19.21796 h 5.2574 c 2.8915,0 9.0946,-0.52596 13.7846,-1.16879 l 8.5273,-1.1688 V 585.1373 562.41275 h 22.9744 22.9744 l 0.025,18.83899 c 0.038,28.4525 -0.907,27.10506 19.0282,27.13486 26.4344,0.0395 25.0575,-1.13236 25.0575,21.32569 v 19.08412 h -20.9247 -20.9246 l -1.3069,10.45986 c -2.1062,16.85693 0.8552,83.26097 3.9866,89.39373 4.8022,9.40503 19.9235,12.86725 34.1,7.80764 l 6.877,-2.45443 5.5615,17.36179 c 3.0588,9.549 5.0984,18.11105 4.5325,19.02679 -0.566,0.91576 -6.4572,3.3416 -13.0917,5.39076 -15.4675,4.77743 -34.492,4.73396 -49.7926,-0.1138 z"
       id="path7" /><path
       style="fill:#23436a;fill-opacity:1;stroke-width:1.83795"
       d="m 1935.16,795.37905 c -26.5907,-9.29775 -40.2455,-30.55523 -37.9552,-59.08796 1.1412,-14.21704 6.2273,-24.30981 17.0523,-33.83831 13.6644,-12.0279 25.7208,-15.24553 63.3773,-16.91417 17.6902,-0.78389 32.3709,-1.51433 32.6236,-1.6232 1.7435,-0.75113 -0.2178,-13.43726 -3.0143,-19.49643 -6.5571,-14.20717 -19.3969,-21.13642 -39.1656,-21.13642 -10.9868,0 -34.9069,6.67755 -43.2201,12.06535 -2.2389,1.45104 -4.5051,2.63825 -5.036,2.63825 -0.5308,0 -4.6838,-7.40422 -9.2287,-16.45382 l -8.2636,-16.45381 13.2995,-6.52194 c 44.2759,-21.71242 97.7708,-17.63276 122.8478,9.36869 16.8421,18.13451 19.8689,36.68846 19.9709,122.41787 l 0.056,47.32722 h -22.0554 -22.0554 v -10.10873 c 0,-12.10213 -2.1389,-12.8468 -10.9093,-3.79807 -14.3504,14.80583 -44.5277,19.93614 -68.3241,11.61548 z m 55.3035,-33.08922 c 4.4518,-2.27447 10.6206,-7.31024 13.7084,-11.19061 4.9948,-6.27694 5.687,-8.65923 6.2745,-21.59591 l 0.6603,-14.5407 -24.5475,0.0404 c -26.8113,0.0441 -36.6857,2.63449 -42.6834,11.1974 -4.0125,5.72874 -3.8967,20.63987 0.216,27.78599 6.9518,12.07952 30.6686,16.32631 46.3717,8.30346 z"
       id="path8" /><path
       style="display:inline;fill:#23436a;fill-opacity:1;stroke-width:1.83795"
       d="m 2177.9709,795.33193 c -19.3384,-5.93476 -31.5172,-13.10797 -44.6884,-26.32125 -26.7315,-26.81682 -39.7602,-63.86 -37.433,-106.42965 1.2372,-22.63244 4.585,-35.40661 15.0925,-57.58805 25.1937,-53.1845 86.3183,-75.74869 139.0055,-51.31397 10.8356,5.02522 28.1354,18.18083 31.0366,23.60166 1.527,2.8533 0.4902,4.96045 -5.7972,11.78143 l -7.6568,8.30666 -8.9886,-8.40776 c -4.9437,-4.62427 -14.5493,-11.04198 -21.3457,-14.26159 -11.4608,-5.42924 -13.7638,-5.85384 -31.7509,-5.85384 -18.7085,0 -19.887,0.24374 -33.349,6.89703 -23.481,11.60495 -40.7757,34.28449 -48.2021,63.21038 -3.7541,14.62235 -3.7932,49.01278 -0.074,64.79241 3.4923,14.81546 13.1987,33.41589 23.6178,45.25887 22.2262,25.26367 60.3297,33.67568 89.5522,19.77021 6.458,-3.07302 16.3045,-9.71532 21.8811,-14.76067 l 10.1392,-9.17338 7.1158,8.18002 7.1157,8.18 -9.9032,10.10485 c -17.911,18.27575 -36.305,26.14818 -64.1227,27.44377 -14.5639,0.67832 -19.7474,0.11142 -31.2452,-3.41713 z"
       id="path9" /><path
       style="display:inline;fill:#23436a;fill-opacity:1;stroke-width:1.83795"
       d="M 2321.331,665.25026 V 532.83014 l 11.4872,0.54719 11.4872,0.54719 1.5329,49.62466 c 0.8431,27.29355 1.7988,49.89107 2.1237,50.2167 0.3249,0.32562 5.8382,-3.63856 12.2517,-8.80931 13.6992,-11.04461 25.9628,-15.26313 44.9293,-15.45513 11.5227,-0.11664 14.6855,0.67576 27.0105,6.76711 21.8916,10.81943 31.5964,25.08523 36.1487,53.1375 1.0313,6.35497 1.8813,37.8142 1.8889,69.9094 l 0.014,58.35492 h -11.7389 -11.7389 l -0.9105,-63.86877 c -0.6672,-46.79861 -1.5756,-65.83368 -3.3989,-71.22057 -3.46,-10.22254 -18.9914,-25.77079 -28.2703,-28.30097 -9.3707,-2.55522 -23.7115,-2.56551 -32.8663,-0.0236 -9.694,2.69163 -23.6738,16.1982 -28.9104,27.93167 -4.072,9.12414 -4.3363,12.30878 -5.5242,66.5591 -0.6862,31.33705 -1.3319,59.66445 -1.4349,62.94979 l -0.1873,5.97334 h -11.9467 -11.9467 z"
       id="path10" /><path
       style="display:inline;fill:#23436a;fill-opacity:1;stroke-width:1.83795"
       d="m 2573.1748,796.56192 c -27.423,-7.36923 -47.7255,-28.1877 -58.0681,-59.54391 -4.5024,-13.65026 -4.6839,-51.73551 -0.3133,-65.74364 7.7152,-24.72775 24.0503,-45.733 42.2669,-54.35086 37.0029,-17.50516 78.0862,-4.26601 97.4394,31.40001 6.866,12.65347 12.366,35.06573 12.366,50.39154 v 12.57165 h -21.7578 c -11.9668,0 -41.8258,0.54813 -66.3533,1.21806 l -44.5955,1.21806 1.0822,6.76788 c 2.4518,15.33274 7.4445,26.29696 16.4729,36.17544 14.2336,15.57386 20.2804,18.02984 44.3904,18.02984 22.2546,0 26.5538,-1.40235 40.3281,-13.1545 l 7.245,-6.18139 6.0801,5.8931 c 3.3441,3.24121 6.0802,6.79927 6.0802,7.90681 0,3.30926 -15.0489,16.81143 -23.3778,20.9751 -18.3078,9.15212 -40.2801,11.53401 -59.2854,6.42681 z m 69.5803,-105.31954 c 5.2971,-3.35486 -3.4163,-30.08851 -13.7364,-42.14527 -11.053,-12.91298 -20.2709,-17.14539 -37.9639,-17.43128 -13.5701,-0.21928 -16.2,0.32229 -24.9689,5.14169 -11.1272,6.11552 -16.9353,12.33017 -23.3452,24.97945 -4.9509,9.77013 -8.8695,24.906 -7.4236,28.67401 0.7512,1.95748 11.3242,2.44061 52.9185,2.41808 28.5889,-0.0155 53.1227,-0.75198 54.5195,-1.63668 z"
       id="path11" /><path
       style="display:inline;fill:#23436a;fill-opacity:1;stroke-width:1.83795"
       d="m 2760.6011,796.9822 c -30.8853,-9.00954 -52.0895,-31.69398 -59.6645,-63.8296 -3.577,-15.1747 -3.6041,-43.83661 -0.054,-57.46504 11.7393,-45.06998 48.4816,-71.4655 91.1528,-65.48365 18.0552,2.53106 30.5982,8.91445 41.974,21.36139 5.115,5.59654 9.2999,10.87151 9.2999,11.72215 0,1.65644 -14.6194,14.69871 -16.4761,14.69871 -0.611,0 -2.569,-2.4685 -4.3512,-5.48554 -3.6884,-6.24385 -15.6943,-14.96626 -24.9362,-18.11631 -8.862,-3.02054 -28.488,-2.63789 -36.5438,0.71251 -27.4692,11.42448 -40.0824,35.63489 -38.6706,74.22663 0.5962,16.2999 1.5091,21.14884 5.6763,30.14987 7.5617,16.33318 14.7842,24.25935 28.0625,30.79623 11.0459,5.43786 12.7955,5.75849 27.2757,4.99848 13.4409,-0.70547 16.7648,-1.59866 25.3119,-6.80166 5.4115,-3.29424 11.9069,-8.80023 14.434,-12.23553 2.5272,-3.43529 5.2042,-6.26875 5.9488,-6.29658 1.819,-0.068 15.9486,9.76557 16.0369,11.16083 0.038,0.60648 -2.3256,4.40931 -5.2531,8.45074 -7.8443,10.82865 -20.4696,20.41574 -32.6388,24.78434 -13.1364,4.71585 -35.2027,5.97209 -46.5841,2.65203 z"
       id="path12" /><path
       style="fill:#23436a;fill-opacity:1;stroke-width:1.83795"
       d="M 2881.9058,665.33796 V 533.00555 h 11.9467 11.9467 l 0.1292,83.16724 c 0.071,45.74198 0.726,84.68247 1.4554,86.53441 2.4125,6.12535 15.3036,-6.60721 69.4683,-68.6144 l 20.0686,-22.97437 14.3732,-0.54041 14.3731,-0.54041 -5.2549,6.25331 c -2.8902,3.43933 -12.6986,14.48759 -21.7964,24.5517 -26.9099,29.76789 -37.6786,42.98806 -37.6682,46.24309 0.01,1.68551 6.5728,12.57597 14.5941,24.201 8.0213,11.62504 24.4394,35.81705 36.4846,53.76004 l 21.9004,32.62362 h -14.1457 -14.1457 l -30.32,-44.57029 c -16.676,-24.51366 -31.5812,-44.81571 -33.1227,-45.11567 -1.6218,-0.3156 -9.8788,7.23641 -19.5979,17.92468 l -16.7954,18.47006 v 26.64561 26.64561 h -11.9467 -11.9467 z"
       id="path14" /></g></svg>
